$MeshFormat
4.1 0 8
$EndMeshFormat
$PhysicalNames
7
3 1 "Specimen"
2 1 "srfXMax"
2 2 "srfXMin"
2 3 "srfYMax"
2 4 "srfYMin"
2 5 "srfZMax"
2 6 "srfZMin"
$EndPhysicalNames
$Entities
0 0 6 1
1 0.0107 -0.0107 0 0.0152 0.0107 0.06 1 1 0
2 -0.0152 -0.0107 0 -0.0107 0.0107 0.06 1 2 0
3 -0.0107 0.0107 0 0.0107 0.0152 0.06 1 3 0
4 -0.0107 -0.0152 0 0.0107 -0.0107 0.06 1 4 0
5 -0.0152 -0.0152 0.06 0.0152 0.0152 0.06 1 5 0
6 -0.0152 -0.0152 0 0.0152 0.0152 0 1 6 0
1 -0.0152 -0.0152 0 0.0152 0.0152 0.06 1 1 0
$EndEntities
$Nodes
1 558 1 558
3 1 0 558
1
2
3
4
5
6
7
8
9
10
11
12
13
14
15
16
17
18
19
20
21
22
23
24
25
26
27
28
29
30
31
32
33
34
35
36
37
38
39
40
41
42
43
44
45
46
47
48
49
50
51
52
53
54
55
56
57
58
59
60
61
62
63
64
65
66
67
68
69
70
71
72
73
74
75
76
77
78
79
80
81
82
83
84
85
86
87
88
89
90
91
92
93
94
95
96
97
98
99
100
101
102
103
104
105
106
107
108
109
110
111
112
113
114
115
116
117
118
119
120
121
122
123
124
125
126
127
128
129
130
131
132
133
134
135
136
137
138
139
140
141
142
143
144
145
146
147
148
149
150
151
152
153
154
155
156
157
158
159
160
161
162
163
164
165
166
167
168
169
170
171
172
173
174
175
176
177
178
179
180
181
182
183
184
185
186
187
188
189
190
191
192
193
194
195
196
197
198
199
200
201
202
203
204
205
206
207
208
209
210
211
212
213
214
215
216
217
218
219
220
221
222
223
224
225
226
227
228
229
230
231
232
233
234
235
236
237
238
239
240
241
242
243
244
245
246
247
248
249
250
251
252
253
254
255
256
257
258
259
260
261
262
263
264
265
266
267
268
269
270
271
272
273
274
275
276
277
278
279
280
281
282
283
284
285
286
287
288
289
290
291
292
293
294
295
296
297
298
299
300
301
302
303
304
305
306
307
308
309
310
311
312
313
314
315
316
317
318
319
320
321
322
323
324
325
326
327
328
329
330
331
332
333
334
335
336
337
338
339
340
341
342
343
344
345
346
347
348
349
350
351
352
353
354
355
356
357
358
359
360
361
362
363
364
365
366
367
368
369
370
371
372
373
374
375
376
377
378
379
380
381
382
383
384
385
386
387
388
389
390
391
392
393
394
395
396
397
398
399
400
401
402
403
404
405
406
407
408
409
410
411
412
413
414
415
416
417
418
419
420
421
422
423
424
425
426
427
428
429
430
431
432
433
434
435
436
437
438
439
440
441
442
443
444
445
446
447
448
449
450
451
452
453
454
455
456
457
458
459
460
461
462
463
464
465
466
467
468
469
470
471
472
473
474
475
476
477
478
479
480
481
482
483
484
485
486
487
488
489
490
491
492
493
494
495
496
497
498
499
500
501
502
503
504
505
506
507
508
509
510
511
512
513
514
515
516
517
518
519
520
521
522
523
524
525
526
527
528
529
530
531
532
533
534
535
536
537
538
539
540
541
542
543
544
545
546
547
548
549
550
551
552
553
554
555
556
557
558
0.014 -0.0058 0.06
0.0107 -0.0107 0.06
0.0107 -0.0107 0
0.014 -0.0058 0
0 -0.0152 0.06
-0.0058 -0.014 0.06
-0.0107 -0.0107 0.06
-0.014 -0.0058 0.06
-0.0152 0 0.06
-0.014 0.0058 0.06
-0.0107 0.0107 0.06
-0.0058 0.014 0.06
0 0.0152 0.06
0.0058 0.014 0.06
0.0107 0.0107 0.06
0.014 0.0058 0.06
0.0152 0 0.06
0.0058 -0.014 0.06
0.0058 -0.014 0
0 -0.0152 0
-0.0058 -0.014 0
-0.0107 -0.0107 0
-0.014 -0.0058 0
-0.0152 0 0
-0.014 0.0058 0
-0.0107 0.0107 0
-0.0058 0.014 0
0 0.0152 0
0.0058 0.014 0
0.0107 0.0107 0
0.014 0.0058 0
0.0152 0 0
0 -0.0152 0.0067
0 0.0152 0.0067
0.0058 0.014 0.0067
0.0124 -0.0083 0.06
0.0107 -0.0107 0.048
0.0107 -0.0107 0.036
0.0107 -0.0107 0.024
0.0107 -0.0107 0.012
0.0107 -0.0107 0.054
0.0107 -0.0107 0.042
0.0107 -0.0107 0.03
0.0107 -0.0107 0.018
0.0107 -0.0107 0.006
0.0124 -0.0083 0
0.014 -0.0058 0.012
0.014 -0.0058 0.024
0.014 -0.0058 0.036
0.014 -0.0058 0.048
0.014 -0.0058 0.006
0.014 -0.0058 0.018
0.014 -0.0058 0.03
0.014 -0.0058 0.042
0.014 -0.0058 0.054
-0.0029 -0.0146 0.06
-0.0083 -0.0124 0.06
-0.0124 -0.0083 0.06
-0.0146 -0.0029 0.06
-0.0146 0.0029 0.06
-0.0124 0.0083 0.06
-0.0083 0.0124 0.06
-0.0029 0.0146 0.06
0.0029 0.0146 0.06
0.0083 0.0124 0.06
0.0124 0.0083 0.06
0.0146 0.0029 0.06
0.0146 -0.0029 0.06
0.0083 -0.0124 0.06
0.0029 -0.0146 0.06
0.0083 -0.0124 0
0.0058 -0.014 0.012
0.0058 -0.014 0.024
0.0058 -0.014 0.036
0.0058 -0.014 0.048
0.0058 -0.014 0.006
0.0058 -0.014 0.018
0.0058 -0.014 0.03
0.0058 -0.014 0.042
0.0058 -0.014 0.054
-0.0029 -0.0146 0
-0.0083 -0.0124 0
-0.0124 -0.0083 0
-0.0146 -0.0029 0
-0.0146 0.0029 0
-0.0124 0.0083 0
-0.0083 0.0124 0
-0.0029 0.0146 0
0.0029 0.0146 0
0.0083 0.0124 0
0.0124 0.0083 0
0.0146 0.0029 0
0.0146 -0.0029 0
0.0029 -0.0146 0
0.0152 0 0.012
0.0152 0 0.024
0.0152 0 0.036
0.0152 0 0.048
0.0152 0 0.006
0.0152 0 0.018
0.0152 0 0.03
0.0152 0 0.042
0.0152 0 0.054
0 -0.0152 0.0033
0 -0.0152 0.02
0 -0.0152 0.0333
0 -0.0152 0.0467
0 -0.0152 0.0133
0 -0.0152 0.0267
0 -0.0152 0.04
0 -0.0152 0.0533
-0.0058 -0.014 0.012
-0.0058 -0.014 0.024
-0.0058 -0.014 0.036
-0.0058 -0.014 0.048
-0.0058 -0.014 0.006
-0.0058 -0.014 0.018
-0.0058 -0.014 0.03
-0.0058 -0.014 0.042
-0.0058 -0.014 0.054
-0.0107 -0.0107 0.012
-0.0107 -0.0107 0.024
-0.0107 -0.0107 0.036
-0.0107 -0.0107 0.048
-0.0107 -0.0107 0.006
-0.0107 -0.0107 0.018
-0.0107 -0.0107 0.03
-0.0107 -0.0107 0.042
-0.0107 -0.0107 0.054
-0.014 -0.0058 0.012
-0.014 -0.0058 0.024
-0.014 -0.0058 0.036
-0.014 -0.0058 0.048
-0.014 -0.0058 0.006
-0.014 -0.0058 0.018
-0.014 -0.0058 0.03
-0.014 -0.0058 0.042
-0.014 -0.0058 0.054
-0.0152 0 0.048
-0.0152 0 0.036
-0.0152 0 0.024
-0.0152 0 0.012
-0.0152 0 0.054
-0.0152 0 0.042
-0.0152 0 0.03
-0.0152 0 0.018
-0.0152 0 0.006
-0.014 0.0058 0.012
-0.014 0.0058 0.024
-0.014 0.0058 0.036
-0.014 0.0058 0.048
-0.014 0.0058 0.006
-0.014 0.0058 0.018
-0.014 0.0058 0.03
-0.014 0.0058 0.042
-0.014 0.0058 0.054
-0.0107 0.0107 0.048
-0.0107 0.0107 0.036
-0.0107 0.0107 0.024
-0.0107 0.0107 0.012
-0.0107 0.0107 0.054
-0.0107 0.0107 0.042
-0.0107 0.0107 0.03
-0.0107 0.0107 0.018
-0.0107 0.0107 0.006
-0.0058 0.014 0.012
-0.0058 0.014 0.024
-0.0058 0.014 0.036
-0.0058 0.014 0.048
-0.0058 0.014 0.006
-0.0058 0.014 0.018
-0.0058 0.014 0.03
-0.0058 0.014 0.042
-0.0058 0.014 0.054
0 0.0152 0.0467
0 0.0152 0.0333
0 0.0152 0.02
0 0.0152 0.0533
0 0.0152 0.04
0 0.0152 0.0267
0 0.0152 0.0133
0 0.0152 0.0033
0.0058 0.014 0.0033
0.0058 0.014 0.02
0.0058 0.014 0.0333
0.0058 0.014 0.0467
0.0058 0.014 0.0133
0.0058 0.014 0.0267
0.0058 0.014 0.04
0.0058 0.014 0.0533
0.0107 0.0107 0.012
0.0107 0.0107 0.024
0.0107 0.0107 0.036
0.0107 0.0107 0.048
0.0107 0.0107 0.006
0.0107 0.0107 0.018
0.0107 0.0107 0.03
0.0107 0.0107 0.042
0.0107 0.0107 0.054
0.014 0.0058 0.012
0.014 0.0058 0.024
0.014 0.0058 0.036
0.014 0.0058 0.048
0.014 0.0058 0.006
0.014 0.0058 0.018
0.014 0.0058 0.03
0.014 0.0058 0.042
0.014 0.0058 0.054
0.0124 -0.0083 0.054
0.0124 -0.0083 0.048
0.0124 -0.0083 0.006
0.0124 -0.0083 0.012
0.0124 -0.0083 0.042
0.0124 -0.0083 0.03
0.0124 -0.0083 0.036
0.0124 -0.0083 0.018
0.0124 -0.0083 0.024
0.0065 0.0024 0.06
-0.0067 -0.0028 0.06
0.0035 -0.0086 0.06
-0.0036 0.0085 0.06
0.0088 -0.0072 0.06
0.0071 -0.0097 0.06
0.0108 0.0012 0.06
0.0103 -0.0017 0.06
0.005 -0.0031 0.06
0.0047 -0.0113 0.06
0.0018 -0.0119 0.06
-0.0012 -0.0113 0.06
-0.0062 -0.0084 0.06
-0.0087 -0.0068 0.06
-0.0016 -0.0057 0.06
-0.0104 -0.0043 0.06
-0.0109 -0.0014 0.06
-0.0104 0.0015 0.06
-0.0088 0.0072 0.06
-0.0072 0.0096 0.06
-0.0051 0.0028 0.06
-0.0047 0.0113 0.06
-0.0018 0.0118 0.06
0.0011 0.0113 0.06
0.0061 0.0082 0.06
0.0086 0.0066 0.06
0.0014 0.0055 0.06
0.0103 0.0041 0.06
-0.0001 -0.0002 0.06
0.0083 -0.0124 0.054
0.0083 -0.0124 0.006
0.0083 -0.0124 0.012
0.0083 -0.0124 0.048
0.0083 -0.0124 0.042
0.0083 -0.0124 0.036
0.0083 -0.0124 0.03
0.0083 -0.0124 0.024
0.0083 -0.0124 0.018
0.0065 0.0024 0
-0.0067 -0.0028 0
0.0035 -0.0086 0
-0.0036 0.0085 0
0.0071 -0.0097 0
0.0088 -0.0072 0
0.0047 -0.0113 0
0.0103 -0.0017 0
0.0108 0.0012 0
0.005 -0.0031 0
0.0018 -0.0119 0
-0.0012 -0.0113 0
-0.0087 -0.0068 0
-0.0062 -0.0084 0
-0.0016 -0.0057 0
-0.0104 -0.0043 0
-0.0109 -0.0014 0
-0.0104 0.0015 0
-0.0072 0.0096 0
-0.0088 0.0072 0
-0.0051 0.0028 0
-0.0047 0.0113 0
-0.0018 0.0118 0
0.0011 0.0113 0
0.0086 0.0066 0
0.0061 0.0082 0
0.0014 0.0055 0
0.0103 0.0041 0
-0.0001 -0.0002 0
0.0146 -0.0029 0.054
0.0146 -0.0029 0.048
0.0146 -0.0029 0.006
0.0146 -0.0029 0.012
0.0146 -0.0029 0.018
0.0146 -0.0029 0.024
0.0146 -0.0029 0.03
0.0146 -0.0029 0.036
0.0146 -0.0029 0.042
-0.0029 -0.0146 0.054
-0.0029 -0.0146 0.0473
-0.0029 -0.0146 0.0033
-0.0029 -0.0146 0.0093
-0.0029 -0.0146 0.016
-0.0029 -0.0146 0.0287
-0.0029 -0.0146 0.022
-0.0029 -0.0146 0.0413
-0.0029 -0.0146 0.0347
-0.0083 -0.0124 0.054
-0.0083 -0.0124 0.048
-0.0083 -0.0124 0.006
-0.0083 -0.0124 0.012
-0.0083 -0.0124 0.024
-0.0083 -0.0124 0.018
-0.0083 -0.0124 0.03
-0.0083 -0.0124 0.042
-0.0083 -0.0124 0.036
-0.0124 -0.0083 0.054
-0.0124 -0.0083 0.048
-0.0124 -0.0083 0.006
-0.0124 -0.0083 0.012
-0.0124 -0.0083 0.018
-0.0124 -0.0083 0.03
-0.0124 -0.0083 0.036
-0.0124 -0.0083 0.024
-0.0124 -0.0083 0.042
-0.0146 -0.0029 0.054
-0.0146 -0.0029 0.048
-0.0146 -0.0029 0.006
-0.0146 -0.0029 0.012
-0.0146 -0.0029 0.018
-0.0146 -0.0029 0.024
-0.0146 -0.0029 0.03
-0.0146 -0.0029 0.036
-0.0146 -0.0029 0.042
-0.0146 0.0029 0.054
-0.0146 0.0029 0.048
-0.0146 0.0029 0.006
-0.0146 0.0029 0.012
-0.0146 0.0029 0.042
-0.0146 0.0029 0.03
-0.0146 0.0029 0.036
-0.0146 0.0029 0.018
-0.0146 0.0029 0.024
-0.0124 0.0083 0.054
-0.0124 0.0083 0.048
-0.0124 0.0083 0.006
-0.0124 0.0083 0.012
-0.0124 0.0083 0.018
-0.0124 0.0083 0.024
-0.0124 0.0083 0.03
-0.0124 0.0083 0.036
-0.0124 0.0083 0.042
-0.0083 0.0124 0.054
-0.0083 0.0124 0.048
-0.0083 0.0124 0.006
-0.0083 0.0124 0.012
-0.0083 0.0124 0.042
-0.0083 0.0124 0.036
-0.0083 0.0124 0.03
-0.0083 0.0124 0.024
-0.0083 0.0124 0.018
-0.0029 0.0146 0.054
-0.0029 0.0146 0.0473
-0.0029 0.0146 0.0033
-0.0029 0.0146 0.0093
-0.0029 0.0146 0.016
-0.0029 0.0146 0.022
-0.0029 0.0146 0.0347
-0.0029 0.0146 0.0287
-0.0029 0.0146 0.0413
0.0029 0.0146 0.0533
0.0029 0.0146 0.0467
0.0029 0.0146 0.0033
0.0029 0.0146 0.0067
0.0029 0.0146 0.0133
0.0029 0.0146 0.02
0.0029 0.0146 0.04
0.0029 0.0146 0.0333
0.0029 0.0146 0.0267
0.0083 0.0124 0.054
0.0083 0.0124 0.0473
0.0083 0.0124 0.0033
0.0083 0.0124 0.0093
0.0083 0.0124 0.016
0.0083 0.0124 0.0287
0.0083 0.0124 0.022
0.0083 0.0124 0.0413
0.0083 0.0124 0.0347
0.0124 0.0083 0.054
0.0124 0.0083 0.048
0.0124 0.0083 0.006
0.0124 0.0083 0.012
0.0124 0.0083 0.018
0.0124 0.0083 0.024
0.0124 0.0083 0.03
0.0124 0.0083 0.036
0.0124 0.0083 0.042
0.0146 0.0029 0.054
0.0146 0.0029 0.048
0.0146 0.0029 0.006
0.0146 0.0029 0.012
0.0146 0.0029 0.018
0.0146 0.0029 0.024
0.0146 0.0029 0.03
0.0146 0.0029 0.036
0.0146 0.0029 0.042
0.0029 -0.0146 0.054
0.0029 -0.0146 0.0473
0.0029 -0.0146 0.0033
0.0029 -0.0146 0.0093
0.0029 -0.0146 0.016
0.0029 -0.0146 0.022
0.0029 -0.0146 0.0347
0.0029 -0.0146 0.0287
0.0029 -0.0146 0.0413
-0.0001 0 0.0288
-0.0001 0 0.0465
-0.0001 0 0.0135
-0.0104 0.0015 0.006
-0.0088 0.0072 0.006
-0.0062 -0.0084 0.054
-0.0012 -0.0113 0.054
0.0088 -0.0072 0.054
0.0103 -0.0017 0.054
0.0053 0.0054 0.0412
0.0029 0.007 0.0399
0.0029 0.007 0.0466
-0.0029 0.007 0.0412
0 0.0076 0.0466
0 0.0076 0.0399
-0.0029 -0.007 0.0472
-0.0054 -0.0054 0.0472
-0.0054 -0.0054 0.0412
-0.0071 -0.0029 0.0472
-0.0076 0 0.0472
-0.0071 0.0029 0.0472
-0.0076 0 0.0412
0.0071 -0.0097 0.054
0.007 -0.0029 0.0472
0.0017 -0.0043 0.0532
0.0053 -0.0054 0.0472
-0.0029 0.007 0.0188
-0.0029 0.007 0.0128
-0.0054 0.0054 0.0128
-0.0029 -0.007 0.0188
-0.0054 -0.0054 0.0188
-0.0029 -0.007 0.0128
-0.0034 -0.0014 0.0532
-0.0071 -0.0029 0.0188
-0.0071 -0.0029 0.0128
0.0032 0.0012 0.0532
-0.0076 0 0.0188
-0.0076 0 0.0128
-0.0071 0.0029 0.0128
0 -0.0076 0.0168
-0.0018 0.0042 0.0068
-0.0034 -0.0014 0.0068
0.0018 -0.0119 0.0533
0 -0.0076 0.0466
0.0029 0.007 0.0311
0.0053 0.0054 0.0324
-0.0001 0 0.0376
-0.0029 0.007 0.0324
0 0.0076 0.0311
0.007 0.0029 0.0324
0.0076 0 0.0324
0.007 0.0029 0.0412
0.0076 0 0.0412
0.007 -0.0029 0.0324
0.007 -0.0029 0.0412
0.0053 -0.0054 0.0324
0.0053 -0.0054 0.0412
-0.0072 0.0096 0.006
0.0029 -0.007 0.0324
0.0029 -0.007 0.0412
0.0076 0 0.0472
0.007 0.0029 0.0472
0.0053 0.0054 0.0472
0.0029 -0.007 0.0472
-0.0054 0.0054 0.0324
-0.0054 0.0054 0.0412
-0.0029 -0.007 0.0324
-0.0054 -0.0054 0.0324
-0.0029 -0.007 0.0412
-0.0071 0.0029 0.0324
-0.0071 0.0029 0.0412
-0.0071 -0.0029 0.0324
-0.0071 -0.0029 0.0412
-0.0076 0 0.0324
-0.0029 0.007 0.0472
-0.0054 0.0054 0.0472
0.007 0.0029 0.0188
0.0076 0 0.0188
0.007 0.0029 0.0128
0.007 -0.0029 0.0188
0.0076 0 0.0128
0.007 -0.0029 0.0128
-0.0018 0.0118 0.0533
0.0053 0.0054 0.0128
0.0053 0.0054 0.0188
0.0053 -0.0054 0.0188
0.0053 -0.0054 0.0128
0.0029 -0.007 0.0128
0.0029 -0.007 0.0188
0.0047 -0.0113 0.054
-0.0054 0.0054 0.0188
-0.0054 -0.0054 0.0128
-0.0071 0.0029 0.0188
0 0.0076 0.0168
-0.0047 0.0113 0.006
0.0071 -0.0097 0.006
-0.0033 -0.009 0.0033
0.0018 -0.0119 0.0033
0.0017 -0.0043 0.0068
0 -0.0076 0.0101
-0.0072 0.0096 0.054
-0.0109 -0.0014 0.054
-0.0104 0.0015 0.054
-0.0087 -0.0068 0.054
-0.0047 0.0113 0.054
-0.0018 0.0042 0.0532
0.0029 0.007 0.0168
-0.0109 -0.0014 0.006
-0.0029 -0.007 0.0264
-0.0054 -0.0054 0.0264
-0.0071 -0.0029 0.0264
-0.0001 0 0.0211
-0.0076 0 0.0264
0.0047 -0.0113 0.006
-0.0087 -0.0068 0.006
-0.0062 -0.0084 0.006
0 -0.0076 0.0244
-0.0018 0.0118 0.0033
0 0.0076 0.0101
0 -0.0076 0.0311
0.0108 0.0012 0.054
0.007 0.0029 0.0264
0.0076 0 0.0264
0.007 -0.0029 0.0264
0.0053 0.0054 0.0264
0.0053 -0.0054 0.0264
0.0029 -0.007 0.0264
-0.0029 0.007 0.0264
-0.0054 0.0054 0.0264
-0.0071 0.0029 0.0264
0.0103 -0.0017 0.006
0.0108 0.0012 0.006
0.0032 0.0012 0.0068
-0.0104 -0.0043 0.054
0 0.0076 0.0244
0.0029 0.007 0.0244
-0.0104 -0.0043 0.006
0.0086 0.0066 0.054
0.0061 0.0082 0.0033
0.0086 0.0066 0.006
0.0029 0.007 0.0101
0.0103 0.0041 0.054
0.0103 0.0041 0.006
0 -0.0076 0.0399
0.0086 -0.0042 0.006
-0.0087 0.004 0.054
0.0029 0.007 0.0532
0.0032 0.0088 0.0033
$EndNodes
$Elements
7 447 1 447
3 1 11 243
1 148 257 25 259 414 273 152 415 275 276
2 6 115 219 220 120 416 230 229 232 417
3 50 220 1 218 418 222 55 419 225 226
4 193 186 185 412 382 189 383 420 421 422
5 168 176 175 412 363 179 365 423 424 425
6 115 123 124 412 310 128 304 426 427 428
7 133 124 123 412 313 128 320 429 428 427
8 139 140 151 412 144 334 331 430 431 432
9 133 140 139 412 329 144 322 429 430 432
10 50 37 220 412 210 433 418 434 435 436
11 176 185 186 412 373 189 372 425 422 421
12 175 176 186 412 179 372 367 424 422 425
13 167 160 166 413 356 351 171 437 438 439
14 113 112 122 413 117 308 307 440 441 442
15 219 220 115 412 232 417 416 443 426 435
16 131 122 130 413 319 316 135 444 445 441
17 50 220 218 412 418 226 419 434 446 435
18 131 130 141 413 135 325 326 444 447 445
19 130 142 141 413 324 146 325 445 447 448
20 142 148 141 413 333 337 146 448 447 449
21 105 112 113 413 298 117 300 450 440 442
22 259 148 257 413 415 414 276 451 452 449
23 115 220 107 412 417 453 295 426 454 435
24 115 6 5 220 120 56 294 417 228 229
25 193 185 411 412 383 455 456 420 457 421
26 148 26 259 25 341 274 415 152 275 86
27 176 168 411 412 363 458 459 425 457 423
28 202 411 97 412 460 461 400 462 463 457
29 97 411 49 412 461 464 292 463 465 457
30 193 411 202 412 456 460 391 420 462 457
31 49 411 38 412 464 466 215 465 467 457
32 259 160 148 413 468 342 415 451 449 439
33 38 411 74 412 466 469 252 467 470 457
34 202 97 98 412 400 102 401 462 471 463
35 203 202 98 412 207 401 394 472 471 462
36 50 97 49 412 293 292 54 434 465 463
37 98 97 50 412 102 293 286 471 434 463
38 193 202 194 412 391 392 198 420 473 462
39 203 194 202 412 385 392 207 472 462 473
40 38 37 50 412 42 210 213 467 434 436
41 50 49 38 412 54 215 213 434 467 465
42 37 38 74 412 42 252 251 436 470 467
43 74 75 37 412 79 250 251 470 436 474
44 158 411 168 412 475 458 353 476 423 457
45 114 411 123 412 477 478 311 479 428 457
46 150 411 158 412 480 475 346 481 476 457
47 123 411 132 412 478 482 318 428 483 457
48 150 140 411 412 336 484 480 481 457 432
49 132 411 140 412 482 484 328 483 432 457
50 169 158 168 412 352 353 173 485 423 476
51 169 157 158 412 349 162 352 485 476 486
52 115 114 123 412 119 311 310 426 428 479
53 157 150 158 412 347 346 162 486 476 481
54 157 151 150 412 340 155 347 486 481 431
55 123 132 133 412 318 137 320 428 429 483
56 150 151 140 412 155 334 336 481 432 431
57 132 140 133 412 328 329 137 483 429 432
58 201 200 96 413 205 397 398 487 488 489
59 48 96 95 413 290 100 289 490 491 488
60 200 95 96 413 396 100 397 489 488 491
61 47 48 95 413 52 289 288 492 491 490
62 221 175 13 14 493 178 240 241 64 366
63 191 200 192 413 387 388 196 494 495 489
64 201 192 200 413 389 388 205 487 489 495
65 48 40 39 413 216 44 217 490 496 497
66 48 47 40 413 52 212 216 490 497 492
67 39 40 72 413 44 249 255 496 498 497
68 72 73 39 413 77 254 255 498 496 499
69 176 411 185 412 459 455 373 425 421 457
70 107 220 75 412 453 500 403 454 474 435
71 167 159 160 413 355 164 356 437 439 501
72 122 112 121 413 308 306 126 441 502 442
73 148 160 159 413 342 164 343 449 501 439
74 159 149 148 413 344 153 343 501 449 503
75 121 130 122 413 315 316 126 502 441 445
76 148 149 141 413 153 338 337 449 447 503
77 72 105 73 413 406 407 77 498 499 450
78 74 107 75 412 410 403 79 470 474 454
79 167 166 177 413 171 361 362 437 504 438
80 115 107 114 412 295 301 119 426 479 454
81 166 160 259 413 351 468 505 438 451 439
82 3 4 258 40 46 261 260 45 506 211
83 37 220 2 50 433 223 41 210 209 418
84 1 2 220 50 36 223 222 55 418 209
85 257 33 258 413 507 508 270 452 509 510
86 157 10 221 11 339 236 511 161 237 61
87 26 148 259 160 341 415 274 165 468 342
88 219 139 151 412 512 331 513 443 431 430
89 115 124 219 412 304 514 416 426 443 427
90 37 75 220 412 250 500 433 436 435 474
91 169 175 221 412 358 493 515 485 516 424
92 5 107 115 220 111 295 294 228 417 453
93 191 192 184 413 196 381 379 494 517 495
94 142 257 148 413 518 414 333 448 449 452
95 193 194 186 412 198 376 382 420 422 473
96 113 122 114 411 307 309 118 519 477 520
97 221 157 169 412 511 349 515 516 485 486
98 132 122 131 411 317 319 136 482 521 520
99 25 24 257 148 85 272 273 152 414 332
100 151 9 139 219 330 143 331 513 512 234
101 24 142 257 148 147 518 272 332 414 333
102 122 411 113 413 520 519 307 441 440 522
103 132 131 141 411 136 326 327 482 523 521
104 72 40 258 413 249 506 524 498 509 497
105 131 411 122 413 521 520 319 444 441 522
106 169 168 175 412 173 365 358 485 424 423
107 131 141 411 413 326 523 521 444 522 447
108 21 121 257 22 305 525 269 82 268 125
109 115 124 7 219 304 129 303 416 231 514
110 115 7 6 219 303 57 120 416 230 231
111 112 33 257 413 297 507 526 442 452 510
112 113 411 105 413 519 527 300 440 450 522
113 259 34 166 413 528 360 505 451 438 529
114 258 33 72 413 508 405 524 509 498 510
115 257 112 21 33 526 116 269 507 296 297
116 113 114 106 411 118 302 299 519 530 477
117 218 98 50 412 531 286 419 446 434 471
118 202 201 97 411 206 399 400 460 461 532
119 49 97 96 411 292 101 291 464 533 461
120 49 96 48 411 291 290 53 464 534 533
121 201 96 97 411 398 101 399 532 461 533
122 201 96 411 413 398 533 532 487 522 488
123 48 411 96 413 534 533 290 490 488 522
124 192 201 411 413 389 532 535 495 522 487
125 48 39 411 413 217 536 534 490 522 496
126 201 193 192 411 390 197 389 532 535 456
127 49 39 38 411 214 43 215 464 466 536
128 202 193 201 411 391 390 206 460 532 456
129 49 48 39 411 53 217 214 464 536 534
130 73 411 39 413 537 536 254 499 496 522
131 38 73 74 411 253 78 252 466 469 537
132 38 39 73 411 43 254 253 466 537 536
133 257 121 112 413 525 306 526 452 442 502
134 167 411 159 413 538 539 355 437 501 522
135 159 167 168 411 355 172 354 539 458 538
136 168 158 159 411 353 163 354 458 539 475
137 122 123 114 411 127 311 309 520 477 478
138 159 411 149 413 539 540 344 501 503 522
139 149 411 141 413 540 523 338 503 447 522
140 256 47 95 413 541 288 542 543 491 492
141 149 159 158 411 344 163 345 540 475 539
142 158 150 149 411 346 154 345 475 540 480
143 132 123 122 411 318 127 317 482 520 478
144 150 141 149 411 335 338 154 480 540 523
145 141 150 140 411 335 336 145 523 484 480
146 132 141 140 411 327 145 328 482 484 523
147 73 105 411 413 407 527 537 499 522 450
148 151 10 9 219 156 60 330 513 234 235
149 219 133 139 412 544 322 512 443 430 429
150 124 133 219 412 313 544 514 427 443 429
151 219 221 218 412 238 244 246 443 446 516
152 121 21 257 112 305 269 525 306 526 116
153 219 218 220 412 246 226 232 443 435 446
154 167 177 176 411 362 180 364 538 459 545
155 185 184 192 411 188 381 380 455 535 546
156 257 142 130 413 518 324 547 452 445 448
157 257 256 259 413 284 282 276 452 451 543
158 256 4 32 47 263 93 264 541 287 51
159 98 50 1 218 286 55 285 531 225 419
160 17 98 1 218 103 285 68 224 225 531
161 32 95 256 47 99 542 264 287 541 288
162 258 256 257 413 265 284 270 509 452 543
163 15 218 14 194 243 242 65 199 375 548
164 258 257 21 33 270 269 267 508 296 507
165 73 106 74 411 409 408 78 537 469 530
166 35 256 191 413 549 550 378 551 494 543
167 176 177 185 411 180 374 373 459 455 545
168 185 177 184 411 374 371 188 455 546 545
169 192 411 184 413 535 546 381 495 517 522
170 218 194 203 412 548 385 552 446 472 473
171 167 177 411 413 362 545 538 437 522 504
172 218 203 98 412 552 394 531 446 471 472
173 191 256 200 413 550 553 387 494 489 543
174 220 5 107 75 228 111 453 500 403 402
175 256 95 200 413 542 396 553 543 489 491
176 121 257 130 413 525 547 315 502 445 452
177 185 192 193 411 380 197 383 455 456 535
178 168 167 176 411 172 364 363 458 459 538
179 13 169 175 221 357 358 178 240 493 515
180 177 184 411 413 371 546 545 504 522 517
181 34 29 259 28 368 279 528 182 278 89
182 16 203 218 15 208 552 245 66 243 384
183 30 191 256 31 195 550 280 91 283 386
184 30 191 35 256 195 378 377 280 549 550
185 17 16 203 218 67 208 393 224 552 245
186 21 20 258 33 81 266 267 296 508 104
187 130 142 257 24 324 518 547 323 272 147
188 133 139 9 219 322 143 321 544 234 512
189 9 8 133 219 59 138 321 234 544 233
190 121 23 257 22 314 271 525 125 268 83
191 8 7 133 219 58 312 138 233 544 231
192 124 133 7 219 313 312 129 514 231 544
193 169 13 12 221 357 63 174 515 239 240
194 3 72 258 19 248 524 260 71 262 76
195 259 166 27 160 505 170 277 468 350 351
196 169 11 221 12 348 237 515 174 239 62
197 15 203 218 194 384 552 243 199 548 385
198 200 256 191 31 553 550 387 204 386 283
199 200 95 256 31 396 542 553 204 283 395
200 31 95 256 32 395 542 283 92 264 99
201 98 17 203 218 103 393 394 531 552 224
202 23 130 257 24 134 547 271 84 272 323
203 23 121 257 130 314 525 271 134 547 315
204 18 37 220 2 247 433 227 69 223 41
205 72 3 258 40 248 260 524 249 506 45
206 37 18 220 75 247 227 433 250 500 80
207 26 259 27 160 274 277 87 165 350 468
208 169 11 157 221 348 161 349 515 511 237
209 5 220 18 75 228 227 70 402 80 500
210 19 72 258 33 76 524 262 404 508 405
211 35 29 30 256 183 90 377 549 280 281
212 166 34 259 27 360 528 505 170 277 359
213 258 20 19 33 266 94 262 508 404 104
214 27 34 259 28 359 528 277 88 278 182
215 411 106 412 114 530 554 457 477 479 302
216 411 412 106 74 457 554 530 469 408 470
217 107 412 106 114 454 554 110 301 302 479
218 107 106 412 74 110 554 454 410 470 408
219 413 35 184 191 551 187 517 494 379 378
220 413 34 184 35 529 370 517 551 187 369
221 40 413 256 258 497 543 555 506 265 509
222 256 413 40 47 543 497 555 541 212 492
223 256 4 40 258 263 211 555 265 506 261
224 40 4 256 47 211 263 555 212 541 51
225 412 157 219 221 486 556 443 516 238 511
226 412 219 157 151 443 556 486 431 340 513
227 10 219 157 221 235 556 339 236 511 238
228 10 157 219 151 339 556 235 156 513 340
229 177 34 413 166 181 529 504 361 438 360
230 413 34 177 184 529 181 504 517 371 370
231 194 14 412 218 375 557 473 548 446 242
232 194 412 14 186 473 557 375 376 190 422
233 221 412 14 218 516 557 241 244 242 446
234 412 175 14 186 424 366 557 422 190 367
235 412 14 175 221 557 366 424 516 493 241
236 413 34 256 259 529 558 543 451 282 528
237 413 256 34 35 543 558 529 551 369 549
238 29 256 34 259 281 558 368 279 528 282
239 29 34 256 35 368 558 281 183 549 369
240 411 105 106 113 527 109 530 519 299 300
241 411 106 105 73 530 109 527 537 407 409
242 413 33 105 112 510 108 450 442 298 297
243 413 105 33 72 450 108 510 498 405 406
2 1 9 40
346 2 50 1 209 55 36
347 37 50 2 210 209 41
348 3 4 40 46 211 45
349 40 4 47 211 51 212
350 38 50 37 213 210 42
351 38 39 49 43 214 215
352 38 49 50 215 54 213
353 39 40 48 44 216 217
354 39 48 49 217 53 214
355 40 47 48 212 52 216
356 1 98 17 285 103 68
357 50 98 1 286 285 55
358 4 32 47 93 287 51
359 47 32 95 287 99 288
360 48 47 95 52 288 289
361 49 48 96 53 290 291
362 48 95 96 289 100 290
363 49 97 50 292 293 54
364 49 96 97 291 101 292
365 50 97 98 293 102 286
366 17 203 16 393 208 67
367 98 203 17 394 393 103
368 32 31 95 92 395 99
369 95 31 200 395 204 396
370 96 95 200 100 396 397
371 97 96 201 101 398 399
372 96 200 201 397 205 398
373 97 202 98 400 401 102
374 97 201 202 399 206 400
375 98 202 203 401 207 394
376 203 15 16 384 66 208
377 203 194 15 385 199 384
378 31 30 191 91 195 386
379 31 191 200 386 387 204
380 200 191 192 387 196 388
381 201 192 193 389 197 390
382 201 200 192 205 388 389
383 202 193 194 391 198 392
384 201 193 202 390 391 206
385 202 194 203 392 385 207
2 2 9 40
306 133 7 8 312 58 138
307 133 124 7 313 129 312
308 23 22 121 83 125 314
309 23 121 130 314 315 134
310 130 121 122 315 126 316
311 132 122 123 317 127 318
312 131 130 122 135 316 319
313 131 122 132 319 317 136
314 133 123 124 320 128 313
315 133 132 123 137 318 320
316 157 10 11 339 61 161
317 157 151 10 340 156 339
318 26 25 148 86 152 341
319 26 148 160 341 342 165
320 159 148 149 343 153 344
321 160 148 159 342 343 164
322 158 149 150 345 154 346
323 158 159 149 163 344 345
324 157 150 151 347 155 340
325 157 158 150 162 346 347
326 151 9 10 330 60 156
327 151 139 9 331 143 330
328 25 24 148 85 332 152
329 148 24 142 332 147 333
330 151 140 139 334 144 331
331 150 141 140 335 145 336
332 151 150 140 155 336 334
333 148 142 141 333 146 337
334 148 141 149 337 338 153
335 150 149 141 154 338 335
336 9 133 8 321 138 59
337 139 133 9 322 321 143
338 24 23 130 84 134 323
339 24 130 142 323 324 147
340 141 130 131 325 135 326
341 141 142 130 146 324 325
342 141 131 132 326 136 327
343 140 132 133 328 137 329
344 141 132 140 327 328 145
345 139 140 133 144 329 322
2 3 9 40
386 11 12 169 62 174 348
387 157 11 169 161 348 349
388 26 160 27 165 350 87
389 160 166 27 351 170 350
390 158 157 169 162 349 352
391 158 168 159 353 354 163
392 158 169 168 352 173 353
393 160 159 167 164 355 356
394 159 168 167 354 172 355
395 160 167 166 356 171 351
396 12 13 169 63 357 174
397 169 13 175 357 178 358
398 27 34 28 359 182 88
399 27 166 34 170 360 359
400 166 177 34 361 181 360
401 167 177 166 362 361 171
402 167 168 176 172 363 364
403 167 176 177 364 180 362
404 168 169 175 173 358 365
405 168 175 176 365 179 363
406 175 13 14 178 64 366
407 175 14 186 366 190 367
408 28 34 29 182 368 89
409 34 35 29 369 183 368
410 34 184 35 370 187 369
411 34 177 184 181 371 370
412 175 186 176 367 372 179
413 176 185 177 373 374 180
414 176 186 185 372 189 373
415 177 185 184 374 188 371
416 14 15 194 65 199 375
417 14 194 186 375 376 190
418 29 35 30 183 377 90
419 35 191 30 378 195 377
420 35 184 191 187 379 378
421 185 192 184 380 381 188
422 184 192 191 381 196 379
423 186 193 185 382 383 189
424 185 193 192 383 197 380
425 186 194 193 376 198 382
2 4 9 40
266 37 2 18 41 69 247
267 3 72 19 248 76 71
268 3 40 72 45 249 248
269 37 18 75 247 80 250
270 37 74 38 251 252 42
271 37 75 74 250 79 251
272 38 73 39 253 254 43
273 38 74 73 252 78 253
274 40 39 72 44 255 249
275 39 73 72 254 77 255
276 75 18 5 80 70 402
277 75 5 107 402 111 403
278 19 33 20 404 104 94
279 19 72 33 76 405 404
280 72 105 33 406 108 405
281 72 73 105 77 407 406
282 74 106 73 408 409 78
283 73 106 105 409 109 407
284 75 107 74 403 410 79
285 74 107 106 410 110 408
286 5 6 115 56 120 294
287 5 115 107 294 295 111
288 20 33 21 104 296 81
289 33 112 21 297 116 296
290 105 112 33 298 297 108
291 105 106 113 109 299 300
292 105 113 112 300 117 298
293 106 107 114 110 301 302
294 106 114 113 302 118 299
295 107 115 114 295 119 301
296 6 7 115 57 303 120
297 115 7 124 303 129 304
298 21 121 22 305 125 82
299 112 121 21 306 305 116
300 112 113 122 117 307 308
301 112 122 121 308 126 306
302 114 122 113 309 307 118
303 114 115 123 119 310 311
304 114 123 122 311 127 309
305 115 124 123 304 128 310
2 5 9 22
244 2 220 1 223 222 36
245 1 218 17 225 224 68
246 1 220 218 222 226 225
247 18 220 2 227 223 69
248 6 220 5 229 228 56
249 5 220 18 228 227 70
250 7 219 6 231 230 57
251 219 220 6 232 229 230
252 8 219 7 233 231 58
253 9 219 8 234 233 59
254 10 219 9 235 234 60
255 11 221 10 237 236 61
256 10 221 219 236 238 235
257 12 221 11 239 237 62
258 13 221 12 240 239 63
259 14 221 13 241 240 64
260 15 218 14 243 242 65
261 218 221 14 244 241 242
262 16 218 15 245 243 66
263 17 218 16 224 245 67
264 218 220 219 226 232 246
265 219 221 218 238 244 246
2 6 9 22
426 3 258 4 260 261 46
427 19 258 3 262 260 71
428 4 256 32 263 264 93
429 4 258 256 261 265 263
430 20 258 19 266 262 94
431 21 258 20 267 266 81
432 22 257 21 268 269 82
433 257 258 21 270 267 269
434 23 257 22 271 268 83
435 24 257 23 272 271 84
436 25 257 24 273 272 85
437 26 259 25 274 275 86
438 25 259 257 275 276 273
439 27 259 26 277 274 87
440 28 259 27 278 277 88
441 29 259 28 279 278 89
442 30 256 29 280 281 90
443 256 259 29 282 279 281
444 31 256 30 283 280 91
445 32 256 31 264 283 92
446 256 258 257 265 270 284
447 257 259 256 276 282 284
$EndElements
